<?xml version="1.0" encoding="utf-8"?>
<!-- Generator: Adobe Illustrator 16.0.0, SVG Export Plug-In . SVG Version: 6.00 Build 0)  -->
<!DOCTYPE svg PUBLIC "-//W3C//DTD SVG 1.1//EN" "http://www.w3.org/Graphics/SVG/1.1/DTD/svg11.dtd">
<svg version="1.1" id="logo-ec-cef" xmlns="http://www.w3.org/2000/svg" xmlns:xlink="http://www.w3.org/1999/xlink" x="0px"
	 y="0px" width="340px" height="75px" viewBox="-1.5 0 340 75" enable-background="new -1.5 0 340 75" xml:space="preserve">	 
<path display="none" d="M-37.883,327.184L-37.883,327.184L-37.883,327.184z"/>
<g>
	<g>
		<path fill="#B3B3B3" d="M1.293,27.579c0,0,41.189-5.369,42.354-5.562c1.782-0.292,3.367-0.636,4.845-1.047
			c3.33-0.919,6.397-2.324,9.112-4.171c2.604-1.761,5.024-4.32,7.425-7.127c1.526-1.787,3.131-4.116,4.625-6.364V2.223
			c-1.772,2.646-3.521,4.927-5.317,6.939c-2.381,2.673-4.879,4.857-7.427,6.496c-2.63,1.706-5.588,2.979-8.792,3.786
			c-1.438,0.365-2.978,0.66-4.706,0.902c-1.143,0.162-2.315,0.286-3.451,0.407c-0.454,0.048-38.666,4.132-38.666,4.132L1.293,27.579
			L1.293,27.579z"/>
		<path fill="#B3B3B3" d="M56.533,20.621c-2.579,1.495-5.559,2.587-8.853,3.249c-1.407,0.287-2.938,0.52-4.688,0.711
			c-1.027,0.114-2.062,0.204-3.1,0.293c-0.559,0.048-1.118,0.098-1.675,0.148c-12.624,1.141-25.182,2.354-36.927,3.502v2.695
			c11.838-1.438,24.481-2.963,37.103-4.402c0.562-0.065,1.123-0.128,1.686-0.189c1.032-0.116,2.067-0.23,3.105-0.368
			c1.795-0.243,3.367-0.519,4.802-0.845c3.425-0.772,6.517-1.988,9.188-3.619c2.655-1.605,5.002-3.854,7.525-6.604
			c1.569-1.712,3.317-4.126,4.952-6.396V7.808c-1.926,2.633-3.754,4.845-5.562,6.732C61.627,17.112,59.085,19.155,56.533,20.621z"/>
		<path fill="#B3B3B3" d="M63.741,19.96c-2.515,2.324-5.139,4.15-7.802,5.431c-2.604,1.267-5.516,2.153-8.906,2.715
			c-1.399,0.234-2.922,0.425-4.649,0.583l-41.092,3.4v2.687l36.525-3.905l4.728-0.501c1.78-0.207,3.333-0.44,4.746-0.71
			c3.513-0.667,6.523-1.666,9.209-3.05c2.744-1.399,5.484-3.725,8.034-6.188c1.712-1.653,3.357-3.786,5.117-6.023v-0.895
			C67.62,16.049,65.679,18.172,63.741,19.96z"/>
		<path fill="#B3B3B3" d="M53.805,33.912c-2.392,1.349-4.181,2.125-7.597,2.486c-2.064,0.222-4.188,0.33-6.239,0.432
			c-0.994,0.05-1.989,0.099-2.981,0.163c-6.208,0.356-12.305,0.754-18.522,1.161L1.294,39.32v2.688l17.343-1.604
			c5.604-0.506,12.116-1.09,18.473-1.612l4.621-0.36c1.807-0.14,3.284-0.287,4.655-0.469c3.514-0.458,6.518-1.173,9.178-2.185
			c2.865-1.08,5.567-2.756,8.273-4.727c2.438-1.776,5.813-5.28,5.817-5.325v-0.95c-2.205,2.17-3.478,3.388-5.893,4.993
			C60.873,31.685,55.95,32.704,53.805,33.912z"/>
		<path fill="#B3B3B3" d="M54.679,39.018c-2.593,0.768-5.51,1.284-8.92,1.586c-1.381,0.121-2.872,0.213-4.556,0.28l-4.598,0.203
			c-11.42,0.534-22.786,1.133-35.312,1.802v2.68c11.967-0.934,23.694-1.842,35.418-2.685l4.583-0.313
			c1.769-0.116,3.234-0.243,4.615-0.399c3.493-0.396,6.483-1.002,9.14-1.856c2.941-0.938,5.809-2.301,8.52-4.045
			c2.006-1.284,4.009-2.816,6.086-4.646v-0.046c-2.291,1.97-4.474,2.407-6.647,3.73C60.34,36.931,57.539,38.182,54.679,39.018z"/>
		<path fill="#B3B3B3" d="M54.255,43.468c-2.611,0.617-5.441,1.013-8.906,1.246c-1.337,0.091-2.771,0.157-4.521,0.212l-4.554,0.163
			c-11.469,0.438-23.099,0.938-34.98,1.459v2.681c11.806-0.812,23.389-1.604,35.069-2.34l4.542-0.271
			c1.78-0.104,3.231-0.207,4.565-0.331c3.53-0.326,6.417-0.806,9.087-1.502c2.996-0.777,5.909-1.918,8.655-3.39
			c2.125-1.136,4.244-2.5,6.438-4.143v-1.145c-2.374,1.729-4.647,3.135-6.929,4.284C60.027,41.751,57.178,42.787,54.255,43.468z"/>
		<path fill="#B3B3B3" d="M53.866,47.835c-2.62,0.481-5.441,0.789-8.882,0.97c-1.294,0.067-2.679,0.115-4.487,0.157l-39.204,1.07
			v2.675l34.765-1.827l4.502-0.231c1.758-0.084,3.196-0.168,4.525-0.271c3.485-0.271,6.354-0.653,9.023-1.219
			c3.032-0.636,5.976-1.562,8.746-2.749c2.232-0.954,4.47-2.117,6.797-3.532v-1.075c-2.486,1.458-4.854,2.629-7.201,3.564
			C59.718,46.46,56.83,47.291,53.866,47.835z"/>
		<path fill="#B3B3B3" d="M53.559,52.217c-4.811,0.646-9.762,0.721-14.552,0.792c-1.098,0.017-2.196,0.032-3.292,0.056L1.293,53.689
			v2.672l34.479-1.496c1.096-0.051,2.188-0.094,3.284-0.139c4.823-0.193,9.812-0.395,14.687-1.176
			c3.087-0.488,6.057-1.216,8.827-2.154c2.297-0.773,4.675-1.775,7.082-2.961v-1.023c-2.529,1.188-5.021,2.174-7.409,2.914
			C59.504,51.178,56.583,51.814,53.559,52.217z"/>
		<path fill="#B3B3B3" d="M53.285,56.626c-4.51,0.375-9.12,0.377-13.583,0.377c-1.389,0-2.775,0-4.162,0.011
			c-11.403,0.051-22.716,0.146-34.248,0.245v2.675c10.981-0.377,22.635-0.77,34.287-1.117c1.383-0.047,2.767-0.08,4.149-0.117
			c4.485-0.113,9.123-0.233,13.676-0.729c3.185-0.344,6.077-0.848,8.852-1.536c2.418-0.601,4.903-1.398,7.396-2.359V53.09
			c-2.573,0.934-5.142,1.692-7.641,2.247C59.268,55.945,56.412,56.369,53.285,56.626z"/>
		<path fill="#B3B3B3" d="M53.111,60.977c-1.878,0.073-3.909,0.109-6.218,0.109c-0.871,0-1.742-0.006-2.612-0.014l-8.871-0.108
			c-6.055-0.045-12.084-0.057-17.742-0.062L1.293,60.919v2.672l16.413-0.434c5.638-0.14,11.686-0.285,17.72-0.394l8.865-0.119
			c2.431-0.039,5.641-0.108,8.891-0.324c3.187-0.209,6.083-0.526,8.862-0.976c2.5-0.403,5.055-0.946,7.608-1.604v-0.948
			c-2.625,0.609-5.233,1.1-7.767,1.438C59.124,60.607,56.254,60.85,53.111,60.977z"/>
		<path fill="#B3B3B3" d="M44.177,65.177l-8.841-0.096c-11.279-0.16-22.549-0.369-34.043-0.585v2.675
			c10.973-0.073,22.594-0.157,34.051-0.288l8.847-0.133c2.981-0.052,5.9-0.105,8.854-0.205c6.079-0.197,11.521-0.628,16.609-1.305
			v-0.93c-5.105,0.554-10.561,0.846-16.643,0.887C50.069,65.223,47.123,65.201,44.177,65.177z"/>
		<polygon fill="#B3B3B3" points="69.654,69.902 1.293,68.156 1.293,70.828 69.654,70.828 		"/>
	</g>
	<g>
		<path fill="#B3B3B3" d="M63.499,25.01c-2.599,2.102-4.604,3.594-7.782,4.868c-2.766,1.109-5.74,1.562-9.137,2.028
			c-2.188,0.309-4.472,0.766-6.652,0.911c-0.898,0.062-1.795,0.122-2.69,0.194L1.293,35.648v2.682l36.09-3.526l4.68-0.441
			c1.735-0.166,3.276-0.358,4.709-0.592c3.498-0.566,6.513-1.43,9.212-2.641c2.804-1.246,5.642-3.287,8.274-5.52
			c1.793-1.517,3.517-3.428,5.395-5.513v-0.96C67.384,21.501,65.501,23.392,63.499,25.01z"/>
	</g>
	<path fill="#B3B3B3" d="M98.746,2.223c0,0,12.302,19.596,14.553,23.189c2.249,3.591,4.821,6.434,13.922,8.363
		c9.104,1.932,13.065,2.843,13.065,2.843v0.697c0,0-5.784-1.234-13.228-2.896c-7.441-1.663-10.483-2.221-13.879-6.941
		c-2.823-3.93-14.436-20.625-14.436-20.625L98.746,2.223L98.746,2.223z"/>
	<path fill="#B3B3B3" d="M98.746,24.601c0,0,11.197,11.736,14.436,15.105c3.438,3.574,7.837,4.896,13.938,5.985
		c5.819,1.039,13.165,2.24,13.165,2.24v0.66c0,0-6.896-1.133-13.165-2.203c-6.148-1.053-10.451-1.641-13.974-4.885
		c-3.152-2.904-14.398-13.452-14.398-13.452L98.746,24.601L98.746,24.601z"/>
	<path fill="#B3B3B3" d="M98.746,29.889c0,0,10.648,9.89,14.436,13.268c3.485,3.11,6.31,4.077,13.973,5.437
		c7.664,1.357,13.13,2.203,13.13,2.203v0.697c0,0-6.933-1.139-13.165-2.131c-6.233-0.991-10.207-1.383-13.938-4.406
		c-4.303-3.49-14.436-11.836-14.436-11.836L98.746,29.889L98.746,29.889z"/>
	<path fill="#B3B3B3" d="M98.746,35.525c0,0,12.167,9.652,14.438,11.342c2.274,1.688,5.282,3.66,14.009,4.92
		c8.655,1.25,13.094,1.872,13.094,1.872v0.735c0,0-7.85-1.141-13.094-1.802c-5.241-0.659-9.265-0.938-13.973-4.075
		C108.638,45.465,98.744,38.5,98.744,38.5L98.746,35.525L98.746,35.525z"/>
	<path fill="#B3B3B3" d="M98.746,40.945c0,0,12.203,8.123,14.513,9.41c2.312,1.285,5.024,3.377,13.936,4.516
		c8.912,1.139,13.094,1.652,13.094,1.652v0.699c0,0-7.371-0.811-13.128-1.435c-5.759-0.625-9.683-1.472-13.975-3.819
		c-4.291-2.35-14.438-8.277-14.438-8.277L98.746,40.945L98.746,40.945z"/>
	<path fill="#B3B3B3" d="M98.746,46.363c0,0,10.786,5.867,14.436,7.701c4.072,2.043,7.593,3.021,13.973,3.779
		c6.267,0.746,13.13,1.471,13.13,1.471v0.662c0,0-6.348-0.682-13.13-1.322c-6.725-0.637-9.117-0.932-13.973-3.086
		c-4.341-1.924-14.436-6.633-14.436-6.633V46.363z"/>
	<path fill="#B3B3B3" d="M98.746,51.857c0,0,8.522,3.646,14.513,6.023c5.893,2.338,10.391,2.533,13.973,2.938
		c1.577,0.178,13.056,1.357,13.056,1.357v0.66c0,0-6.858-0.551-13.094-1.102c-6.232-0.551-8.924-0.785-13.973-2.459
		c-5.108-1.696-14.476-4.963-14.476-4.963L98.746,51.857L98.746,51.857z"/>
	<path fill="#B3B3B3" d="M98.746,57.455c0,0,8.604,2.667,14.473,4.209c5.868,1.544,11.259,2.168,13.973,2.352
		c2.714,0.186,13.097,1.027,13.097,1.027v0.624c0,0-5.904-0.401-13.133-0.917c-5.843-0.416-10.535-0.857-13.973-1.616
		c-3.806-0.841-14.436-3.366-14.436-3.366L98.746,57.455L98.746,57.455z"/>
	<path fill="#B3B3B3" d="M98.746,62.964c0,0,7.038,1.213,14.473,2.444c5.575,0.925,13.129,1.507,13.936,1.546
		c0.809,0.035,13.13,0.879,13.13,0.879v0.661c0,0-7.888-0.407-13.13-0.697c-5.461-0.302-10.889-0.632-13.973-0.956
		c-6.905-0.719-14.436-1.672-14.436-1.672V62.964z"/>
	<path fill="#B3B3B3" d="M98.746,68.667c0,0,11.1,0.417,14.473,0.49c3.374,0.073,27.064,1.028,27.064,1.028v0.643H98.746V68.667z"/>
	<path fill="#B3B3B3" d="M127.156,36.804c-10.049-2.166-12.32-5.838-14.009-8.115c-1.688-2.277-14.399-20.857-14.399-20.857v4.192
		c0.5,0.655,11.382,14.902,14.436,18.832c3.443,4.43,8.839,5.434,13.973,6.536c5.135,1.102,13.133,2.638,13.133,2.638v-0.587
		C140.287,39.443,129.749,37.363,127.156,36.804z"/>
	<path fill="#B3B3B3" d="M127.156,39.742c-8.251-1.615-11.589-4.223-14.009-7.381c-2.421-3.158-14.398-18.949-14.398-18.949v3.972
		c0.501,0.594,11.46,13.593,14.398,16.961c3.431,3.929,8.215,4.958,14.009,6.022c5.796,1.064,13.13,2.461,13.13,2.461V42.24
		C140.283,42.24,131.912,40.673,127.156,39.742z"/>
	<path fill="#B3B3B3" d="M127.156,42.791c-8.579-1.664-10.341-3.035-13.973-7.015c-2.282-2.5-13.944-16.271-14.436-16.852v3.669
		c0,0,10.896,11.624,14.398,15.056c4.599,4.505,8.912,4.847,14.009,5.766c5.099,0.917,13.13,2.387,13.13,2.387v-0.624
		C140.283,45.177,130.588,43.456,127.156,42.791z"/>
	<polygon fill="#194790" points="89.599,70.828 89.599,30.762 29.707,30.762 29.707,70.828 	"/>
	<g>
		<polygon fill="#FFF100" points="60.302,36.459 62.386,36.459 60.706,37.768 61.359,39.843 59.686,38.564 58.013,39.843 
			58.673,37.768 56.98,36.459 59.056,36.459 59.686,34.436 		"/>
		<polygon fill="#FFF100" points="60.376,63.177 62.463,63.177 60.783,64.439 61.435,66.436 59.763,65.205 58.089,66.436 
			58.748,64.439 57.052,63.177 59.133,63.177 59.763,61.23 		"/>
		<polygon fill="#FFF100" points="66.985,61.41 69.072,61.41 67.392,62.667 68.045,64.666 66.371,63.432 64.699,64.666 
			65.358,62.667 63.662,61.41 65.742,61.41 66.371,59.46 		"/>
		<polygon fill="#FFF100" points="66.985,38.242 69.072,38.242 67.392,39.501 68.045,41.5 66.371,40.268 64.699,41.5 65.358,39.501 
			63.662,38.242 65.742,38.242 66.371,36.293 		"/>
		<polygon fill="#FFF100" points="71.892,43.148 73.974,43.148 72.295,44.406 72.948,46.406 71.275,45.173 69.605,46.406 
			70.264,44.406 68.568,43.148 70.645,43.148 71.275,41.199 		"/>
		<polygon fill="#FFF100" points="71.892,56.568 73.974,56.568 72.295,57.83 72.948,59.828 71.275,58.595 69.605,59.828 
			70.264,57.83 68.568,56.568 70.645,56.568 71.275,54.622 		"/>
		<polygon fill="#FFF100" points="73.73,49.755 75.818,49.755 74.137,51.016 74.79,53.014 73.116,51.782 71.444,53.014 
			72.103,51.016 70.407,49.755 72.485,49.755 73.116,47.811 		"/>
		<polygon fill="#FFF100" points="53.564,38.258 55.648,38.258 53.968,39.52 54.62,41.518 52.948,40.285 51.274,41.518 
			51.934,39.52 50.241,38.258 52.318,38.258 52.948,36.311 		"/>
		<polygon fill="#FFF100" points="48.793,43.164 50.88,43.164 49.2,44.423 49.849,46.421 48.18,45.191 46.508,46.421 47.165,44.423 
			45.47,43.164 47.551,43.164 48.18,41.216 		"/>
		<polygon fill="#FFF100" points="47.023,49.771 49.108,49.771 47.428,51.032 48.08,53.031 46.408,51.802 44.735,53.031 
			45.394,51.032 43.701,49.771 45.779,49.771 46.408,47.828 		"/>
		<polygon fill="#FFF100" points="48.793,56.585 50.88,56.585 49.2,57.848 49.849,59.845 48.18,58.613 46.508,59.845 47.165,57.848 
			45.47,56.585 47.551,56.585 48.18,54.641 		"/>
		<polygon fill="#FFF100" points="53.634,61.425 55.717,61.425 54.038,62.686 54.687,64.682 53.016,63.449 51.344,64.682 
			52.004,62.686 50.31,61.425 52.388,61.425 53.016,59.479 		"/>
	</g>
</g>
<g>
	<path fill="#194790" d="M156.737,62.104c0-1.196,0.079-2.336,0.237-3.414s0.466-2.018,0.924-2.82s1.092-1.445,1.905-1.926
		c0.812-0.479,1.869-0.719,3.168-0.719c0.273,0,0.607,0.01,1.001,0.026c0.395,0.017,0.791,0.042,1.193,0.077
		c0.4,0.035,0.795,0.086,1.181,0.154c0.385,0.066,0.714,0.152,0.988,0.256c0.119,0.035,0.162,0.111,0.128,0.229l-0.026,0.282
		c-0.017,0.051-0.039,0.09-0.062,0.115c-0.026,0.025-0.082,0.029-0.167,0.013c-0.256-0.019-0.543-0.039-0.859-0.063
		c-0.317-0.024-0.654-0.051-1.014-0.076c-0.359-0.026-0.725-0.047-1.09-0.064c-0.368-0.017-0.725-0.025-1.065-0.025
		c-1.232,0-2.211,0.24-2.938,0.72c-0.727,0.479-1.277,1.095-1.653,1.848s-0.621,1.604-0.731,2.554
		c-0.109,0.949-0.167,1.896-0.167,2.836c0,0.992,0.068,1.944,0.206,2.859c0.137,0.916,0.406,1.725,0.81,2.426
		c0.4,0.701,0.958,1.262,1.668,1.682c0.709,0.419,1.629,0.629,2.758,0.629c0.291,0,0.62-0.004,0.986-0.014
		c0.368-0.008,0.735-0.024,1.104-0.052c0.368-0.024,0.727-0.047,1.078-0.063c0.35-0.016,0.654-0.041,0.911-0.076
		c0.137,0,0.214,0.051,0.229,0.154l0.051,0.281c0,0.104-0.051,0.18-0.152,0.23c-0.274,0.104-0.62,0.184-1.039,0.244
		c-0.419,0.06-0.843,0.104-1.271,0.141c-0.428,0.034-0.83,0.061-1.206,0.077s-0.657,0.024-0.847,0.024
		c-1.283,0-2.331-0.223-3.143-0.666c-0.812-0.444-1.448-1.057-1.905-1.836c-0.458-0.776-0.771-1.685-0.938-2.72
		C156.82,64.391,156.737,63.283,156.737,62.104z"/>
	<path fill="#194790" d="M174.056,70.621c-1.146,0-2.044-0.201-2.694-0.604c-0.648-0.4-1.138-0.918-1.462-1.553
		c-0.323-0.632-0.524-1.347-0.603-2.143c-0.078-0.797-0.115-1.596-0.115-2.399c0-0.633,0.051-1.315,0.154-2.053
		c0.103-0.735,0.321-1.415,0.654-2.04c0.331-0.624,0.819-1.143,1.462-1.553c0.642-0.41,1.51-0.615,2.604-0.615
		c1.112,0,2.001,0.18,2.668,0.539c0.667,0.357,1.176,0.833,1.527,1.424c0.35,0.59,0.581,1.257,0.691,2.001
		c0.111,0.744,0.167,1.51,0.167,2.296c0,0.771-0.043,1.553-0.128,2.35c-0.086,0.795-0.295,1.514-0.629,2.153
		c-0.333,0.644-0.838,1.167-1.514,1.578C176.164,70.416,175.237,70.621,174.056,70.621z M174.056,58.51
		c-0.838,0-1.514,0.146-2.027,0.438c-0.513,0.291-0.909,0.688-1.191,1.192c-0.282,0.504-0.471,1.1-0.564,1.782
		c-0.094,0.685-0.141,1.42-0.141,2.207c0,0.806,0.047,1.554,0.141,2.246c0.096,0.692,0.282,1.295,0.564,1.81s0.68,0.916,1.191,1.205
		c0.515,0.291,1.188,0.438,2.027,0.438c0.855,0,1.552-0.143,2.091-0.423c0.539-0.282,0.958-0.677,1.257-1.181
		c0.301-0.505,0.5-1.104,0.604-1.797c0.103-0.693,0.154-1.458,0.154-2.297c0-0.838-0.053-1.604-0.154-2.296
		c-0.104-0.692-0.3-1.283-0.59-1.771c-0.291-0.487-0.706-0.869-1.245-1.144C175.635,58.646,174.929,58.51,174.056,58.51z"/>
	<path fill="#194790" d="M187.543,57.689c0.855,0,1.521,0.123,1.994,0.371c0.472,0.248,0.813,0.586,1.027,1.014
		s0.345,0.924,0.388,1.488c0.043,0.562,0.062,1.153,0.062,1.771v7.929c0,0.104-0.051,0.154-0.154,0.154h-0.667
		c-0.086,0-0.128-0.051-0.128-0.154v-8.049c0-0.531-0.018-1.027-0.051-1.49c-0.035-0.463-0.141-0.861-0.321-1.197
		c-0.18-0.334-0.452-0.6-0.819-0.797c-0.368-0.195-0.876-0.295-1.526-0.295c-0.376,0-0.805,0.068-1.283,0.207
		c-0.479,0.137-0.947,0.295-1.411,0.477c-0.462,0.18-0.894,0.367-1.296,0.564c-0.4,0.197-0.714,0.355-0.937,0.478v10.104
		c0,0.104-0.062,0.154-0.18,0.154h-0.564c-0.086,0-0.128-0.051-0.128-0.154V58.074c0-0.104,0.042-0.154,0.128-0.154h0.564
		c0.118,0,0.18,0.051,0.18,0.154l0.002,1.386c0.257-0.153,0.579-0.334,0.965-0.539c0.385-0.205,0.802-0.397,1.248-0.577
		s0.917-0.334,1.415-0.462C186.548,57.753,187.046,57.689,187.543,57.689z"/>
	<path fill="#194790" d="M199.449,57.689c0.855,0,1.521,0.123,1.992,0.371c0.474,0.248,0.815,0.586,1.029,1.014
		s0.343,0.924,0.386,1.488c0.043,0.562,0.064,1.153,0.064,1.771v7.929c0,0.104-0.051,0.154-0.154,0.154H202.1
		c-0.086,0-0.128-0.051-0.128-0.154v-8.049c0-0.531-0.018-1.027-0.051-1.49c-0.035-0.463-0.143-0.861-0.321-1.197
		c-0.18-0.334-0.454-0.6-0.821-0.797c-0.366-0.195-0.876-0.295-1.524-0.295c-0.376,0-0.805,0.068-1.283,0.207
		c-0.479,0.137-0.949,0.295-1.411,0.477c-0.462,0.18-0.894,0.367-1.296,0.564s-0.714,0.355-0.937,0.478v10.104
		c0,0.104-0.062,0.154-0.182,0.154h-0.562c-0.086,0-0.128-0.051-0.128-0.154V58.074c0-0.104,0.042-0.154,0.128-0.154h0.562
		c0.12,0,0.182,0.051,0.182,0.154l0.002,1.386c0.257-0.153,0.579-0.334,0.965-0.539c0.385-0.205,0.802-0.397,1.248-0.577
		c0.444-0.18,0.917-0.334,1.415-0.462C198.454,57.753,198.951,57.689,199.449,57.689z"/>
	<path fill="#194790" d="M205.231,64.078c0-0.77,0.057-1.535,0.167-2.296c0.111-0.761,0.344-1.45,0.693-2.065
		s0.842-1.111,1.476-1.488c0.634-0.375,1.473-0.562,2.517-0.562c1.024,0,1.858,0.152,2.501,0.462
		c0.641,0.31,1.137,0.724,1.486,1.245c0.353,0.521,0.592,1.121,0.72,1.796c0.128,0.677,0.19,1.373,0.19,2.091
		c0,0.376-0.056,0.65-0.167,0.821c-0.109,0.171-0.33,0.257-0.652,0.257h-7.98c0,0.719,0.043,1.407,0.129,2.064
		c0.085,0.658,0.261,1.24,0.527,1.744c0.266,0.506,0.657,0.903,1.171,1.193c0.515,0.291,1.201,0.436,2.06,0.436
		c0.688,0,1.345-0.027,1.971-0.09c0.626-0.06,1.281-0.123,1.97-0.19c0.137,0,0.213,0.043,0.229,0.128l0.026,0.23
		c0.034,0.119,0,0.188-0.103,0.205c-0.259,0.104-0.564,0.188-0.926,0.256c-0.358,0.069-0.729,0.129-1.114,0.182
		c-0.387,0.052-0.768,0.085-1.144,0.104c-0.376,0.018-0.702,0.024-0.975,0.024c-1.078,0-1.935-0.181-2.566-0.539
		s-1.11-0.838-1.437-1.438c-0.325-0.599-0.535-1.295-0.628-2.09C205.278,65.759,205.231,64.934,205.231,64.078z M210.068,58.51
		c-0.79,0-1.433,0.129-1.931,0.385c-0.498,0.258-0.889,0.612-1.171,1.065c-0.283,0.454-0.485,0.988-0.605,1.604
		c-0.121,0.615-0.188,1.291-0.206,2.025h7.879c-0.019-0.648-0.064-1.277-0.144-1.886c-0.077-0.606-0.249-1.149-0.515-1.629
		c-0.268-0.479-0.661-0.86-1.186-1.144C211.668,58.65,210.96,58.51,210.068,58.51z"/>
	<path fill="#194790" d="M225.578,69.93c0.017,0.104-0.026,0.17-0.128,0.204c-0.259,0.086-0.558,0.163-0.898,0.231
		c-0.343,0.068-0.697,0.124-1.065,0.167c-0.366,0.043-0.719,0.073-1.052,0.09s-0.612,0.026-0.834,0.026
		c-1.009,0-1.809-0.158-2.397-0.477c-0.592-0.316-1.053-0.766-1.383-1.347c-0.332-0.582-0.545-1.274-0.642-2.079
		s-0.145-1.691-0.145-2.668c0-0.872,0.052-1.697,0.156-2.477c0.105-0.778,0.324-1.459,0.654-2.041
		c0.331-0.582,0.804-1.043,1.42-1.386c0.616-0.342,1.438-0.513,2.463-0.513c0.224,0,0.496,0.009,0.821,0.025
		c0.325,0.019,0.658,0.049,1,0.094c0.342,0.044,0.68,0.102,1.014,0.172c0.333,0.07,0.628,0.15,0.887,0.238
		c0.103,0.035,0.145,0.104,0.128,0.211l-0.054,0.26c-0.032,0.104-0.109,0.146-0.229,0.128c-0.687-0.085-1.305-0.153-1.86-0.205
		c-0.556-0.051-1.1-0.077-1.629-0.077c-0.719,0-1.321,0.098-1.809,0.295c-0.487,0.196-0.881,0.516-1.182,0.959
		c-0.299,0.444-0.513,1.021-0.642,1.729c-0.128,0.708-0.192,1.565-0.192,2.571c0,1.061,0.062,1.951,0.182,2.677
		c0.12,0.725,0.323,1.313,0.614,1.766s0.682,0.781,1.167,0.986c0.487,0.204,1.107,0.307,1.86,0.307c0.53,0,1.133-0.024,1.811-0.075
		c0.675-0.053,1.242-0.111,1.704-0.182c0.087-0.018,0.139-0.014,0.154,0.014c0.019,0.024,0.034,0.063,0.051,0.114L225.578,69.93z"/>
	<path fill="#194790" d="M233.083,70.236c-0.026,0.017-0.064,0.043-0.116,0.076c-0.171,0.052-0.466,0.114-0.885,0.191
		s-0.903,0.115-1.45,0.115c-0.805,0-1.347-0.186-1.629-0.551s-0.423-0.969-0.423-1.805v-9.627h-1.617
		c-0.104,0-0.154-0.045-0.154-0.135v-0.456c0-0.103,0.062-0.153,0.18-0.153h1.593v-2.926c0-0.103,0.042-0.17,0.128-0.205l0.462-0.18
		c0.154-0.068,0.239-0.085,0.257-0.051c0.017,0.035,0.025,0.111,0.025,0.229v3.132h2.797c0.085,0,0.128,0.043,0.128,0.127v0.481
		c0,0.089-0.043,0.135-0.128,0.135h-2.797v9.345c0,0.289,0.013,0.545,0.039,0.768c0.024,0.223,0.09,0.414,0.19,0.576
		c0.104,0.162,0.261,0.285,0.477,0.371c0.214,0.084,0.509,0.128,0.885,0.128c0.239,0,0.547-0.009,0.924-0.025
		c0.376-0.017,0.667-0.042,0.873-0.077c0.085-0.017,0.137-0.013,0.154,0.014c0.017,0.025,0.032,0.063,0.051,0.115l0.051,0.231
		C233.113,70.168,233.109,70.22,233.083,70.236z"/>
	<path fill="#194790" d="M236.457,54.559c0,0.188-0.039,0.353-0.116,0.487c-0.077,0.138-0.252,0.205-0.526,0.205
		c-0.272,0-0.443-0.067-0.513-0.205c-0.069-0.137-0.103-0.299-0.103-0.487c0-0.188,0.036-0.342,0.113-0.461
		c0.077-0.121,0.244-0.181,0.5-0.181c0.273,0,0.449,0.06,0.526,0.181C236.417,54.217,236.457,54.371,236.457,54.559z
		 M236.252,70.262c0,0.104-0.043,0.154-0.128,0.154h-0.59c-0.104,0-0.154-0.051-0.154-0.154V58.074c0-0.104,0.052-0.154,0.154-0.154
		h0.614c0.068,0,0.104,0.051,0.104,0.154L236.252,70.262L236.252,70.262z"/>
	<path fill="#194790" d="M245.634,57.689c0.857,0,1.521,0.123,1.994,0.371c0.472,0.248,0.813,0.586,1.029,1.014
		c0.214,0.428,0.343,0.924,0.386,1.488c0.043,0.562,0.062,1.153,0.062,1.771v7.929c0,0.104-0.051,0.154-0.152,0.154h-0.667
		c-0.086,0-0.128-0.051-0.128-0.154v-8.049c0-0.531-0.02-1.027-0.053-1.49c-0.035-0.463-0.141-0.861-0.319-1.197
		c-0.182-0.334-0.454-0.6-0.821-0.797c-0.368-0.195-0.876-0.295-1.526-0.295c-0.376,0-0.805,0.068-1.283,0.207
		c-0.479,0.137-0.947,0.295-1.409,0.477c-0.462,0.18-0.896,0.367-1.296,0.564c-0.402,0.197-0.716,0.355-0.938,0.478v10.104
		c0,0.104-0.06,0.154-0.18,0.154h-0.564c-0.086,0-0.128-0.051-0.128-0.154V58.074c0-0.104,0.042-0.154,0.128-0.154h0.564
		c0.12,0,0.18,0.051,0.18,0.154l0.002,1.386c0.257-0.153,0.579-0.334,0.965-0.539c0.385-0.205,0.802-0.397,1.248-0.577
		s0.917-0.334,1.415-0.462C244.638,57.753,245.136,57.689,245.634,57.689z"/>
	<path fill="#194790" d="M261.269,70.827c0,0.821-0.065,1.509-0.199,2.065c-0.133,0.556-0.366,1-0.706,1.334
		c-0.337,0.332-0.787,0.571-1.353,0.717c-0.564,0.146-1.274,0.219-2.129,0.219c-0.308,0-0.633-0.01-0.975-0.027
		c-0.344-0.018-0.693-0.044-1.054-0.078c-0.357-0.035-0.71-0.084-1.052-0.146s-0.65-0.146-0.924-0.251
		c-0.104-0.055-0.146-0.133-0.128-0.238l0.024-0.26c0.019-0.086,0.096-0.128,0.231-0.128c0.616,0.067,1.227,0.132,1.834,0.192
		c0.606,0.061,1.219,0.088,1.834,0.088c0.701,0,1.292-0.056,1.771-0.166c0.479-0.11,0.864-0.295,1.155-0.553
		c0.291-0.256,0.5-0.599,0.628-1.025c0.128-0.428,0.192-0.959,0.192-1.592v-1.127l-0.077-0.053c-0.907,0.371-1.711,0.6-2.412,0.688
		c-0.702,0.09-1.3,0.134-1.796,0.134c-0.924,0-1.688-0.142-2.296-0.425c-0.607-0.28-1.095-0.695-1.463-1.242
		s-0.625-1.225-0.771-2.027c-0.146-0.803-0.218-1.728-0.218-2.771c0-2.241,0.367-3.888,1.102-4.939
		c0.733-1.052,1.972-1.577,3.712-1.577c1.107,0,2.018,0.047,2.726,0.141c0.708,0.095,1.335,0.209,1.881,0.347
		c0.223,0.051,0.354,0.128,0.396,0.231c0.042,0.103,0.062,0.248,0.062,0.436v12.034H261.269z M260.396,58.869
		c-0.549-0.102-1.176-0.191-1.879-0.27c-0.704-0.076-1.44-0.115-2.214-0.115c-0.532,0-1.039,0.067-1.519,0.205
		c-0.48,0.138-0.901,0.396-1.263,0.78c-0.358,0.386-0.646,0.931-0.86,1.64c-0.216,0.707-0.322,1.634-0.322,2.775
		c0,2.031,0.271,3.521,0.811,4.469c0.541,0.946,1.48,1.42,2.819,1.42c0.652,0,1.334-0.061,2.046-0.18
		c0.712-0.117,1.506-0.307,2.381-0.562V58.869L260.396,58.869z"/>
	<path fill="#194790" d="M270.608,70.416c-0.086,0-0.128-0.042-0.128-0.128V53.584c0-0.12,0.042-0.18,0.128-0.18h8.854
		c0.085,0,0.128,0.051,0.128,0.154v0.562c0,0.104-0.043,0.152-0.128,0.152h-8.031v6.853h7.236c0.085,0,0.128,0.044,0.128,0.132
		v0.529c0,0.124-0.043,0.186-0.128,0.186h-7.236v7.596h8.185c0.104,0,0.154,0.043,0.154,0.127v0.591
		c0,0.086-0.051,0.128-0.154,0.128h-9.006L270.608,70.416L270.608,70.416z"/>
	<path fill="#194790" d="M285.686,70.621c-0.887,0-1.563-0.124-2.035-0.372c-0.469-0.248-0.806-0.585-1.011-1.013
		s-0.32-0.924-0.346-1.488c-0.026-0.564-0.038-1.155-0.038-1.771v-7.929c0-0.103,0.051-0.153,0.154-0.153H283
		c0.085,0,0.128,0.051,0.128,0.153v8.05c0,0.531,0.017,1.028,0.051,1.491c0.035,0.462,0.142,0.861,0.322,1.195
		c0.18,0.334,0.455,0.6,0.824,0.797c0.367,0.196,0.879,0.295,1.53,0.295c0.377,0,0.808-0.067,1.287-0.206
		c0.48-0.137,0.953-0.295,1.416-0.477c0.463-0.18,0.897-0.367,1.3-0.564c0.403-0.197,0.727-0.355,0.965-0.477V58.048
		c0-0.103,0.062-0.153,0.182-0.153h0.539c0.103,0,0.152,0.051,0.152,0.153v12.239c0,0.086-0.051,0.128-0.152,0.128h-0.564
		c-0.12,0-0.18-0.042-0.18-0.128l-0.023-1.438c-0.256,0.153-0.57,0.334-0.945,0.539c-0.375,0.204-0.789,0.397-1.241,0.576
		c-0.452,0.182-0.925,0.334-1.42,0.462C286.675,70.557,286.18,70.621,285.686,70.621z"/>
	<path fill="#194790" d="M299.781,58.741c-0.271,0.086-0.59,0.192-0.947,0.321c-0.359,0.129-0.715,0.266-1.064,0.41
		c-0.352,0.146-0.677,0.286-0.976,0.424c-0.3,0.137-0.52,0.238-0.654,0.308v10.06c0,0.104-0.051,0.153-0.154,0.153h-0.59
		c-0.086,0-0.128-0.051-0.128-0.153V58.048c0-0.103,0.042-0.153,0.128-0.153h0.59c0.104,0,0.154,0.051,0.154,0.153v1.515
		c0.119-0.086,0.308-0.215,0.564-0.386c0.257-0.17,0.539-0.35,0.847-0.538c0.309-0.188,0.638-0.369,0.988-0.539
		c0.35-0.17,0.694-0.3,1.039-0.386c0.085-0.034,0.141-0.034,0.167,0c0.023,0.035,0.047,0.095,0.062,0.181l0.129,0.514
		C299.987,58.596,299.936,58.707,299.781,58.741z"/>
	<path fill="#194790" d="M305.991,70.621c-1.146,0-2.047-0.201-2.694-0.604c-0.65-0.4-1.138-0.918-1.463-1.553
		c-0.325-0.632-0.526-1.347-0.604-2.143c-0.078-0.797-0.116-1.596-0.116-2.399c0-0.633,0.054-1.315,0.154-2.053
		c0.104-0.735,0.32-1.415,0.654-2.04c0.334-0.624,0.821-1.143,1.463-1.553c0.642-0.409,1.509-0.615,2.604-0.615
		c1.111,0,2.001,0.18,2.668,0.539c0.667,0.357,1.178,0.833,1.526,1.424s0.582,1.257,0.692,2.001s0.168,1.51,0.168,2.296
		c0,0.771-0.045,1.553-0.131,2.35c-0.086,0.795-0.295,1.514-0.628,2.153c-0.334,0.644-0.839,1.167-1.515,1.578
		S307.171,70.621,305.991,70.621z M305.991,58.51c-0.841,0-1.517,0.146-2.027,0.438c-0.514,0.291-0.911,0.688-1.193,1.192
		c-0.282,0.504-0.471,1.1-0.562,1.782c-0.096,0.685-0.143,1.42-0.143,2.207c0,0.806,0.047,1.554,0.143,2.246
		c0.094,0.692,0.28,1.295,0.562,1.81s0.682,0.916,1.193,1.205c0.513,0.291,1.188,0.438,2.027,0.438c0.854,0,1.552-0.143,2.089-0.423
		c0.539-0.282,0.958-0.677,1.259-1.181c0.3-0.505,0.501-1.104,0.604-1.797c0.104-0.693,0.153-1.458,0.153-2.297
		c0-0.838-0.051-1.604-0.153-2.296c-0.102-0.692-0.3-1.283-0.59-1.771c-0.292-0.487-0.706-0.869-1.245-1.144
		S306.864,58.51,305.991,58.51z"/>
	<path fill="#194790" d="M313.788,58.048c0-0.103,0.025-0.153,0.077-0.153h0.667c0.085,0,0.128,0.051,0.128,0.153v1.36
		c0.292-0.17,0.633-0.359,1.019-0.564s0.803-0.393,1.248-0.562c0.444-0.17,0.913-0.316,1.4-0.438c0.489-0.119,0.982-0.18,1.479-0.18
		c0.704,0,1.296,0.125,1.775,0.372c0.479,0.248,0.86,0.628,1.146,1.142s0.484,1.167,0.604,1.963
		c0.121,0.795,0.183,1.732,0.183,2.812c0,1.11-0.069,2.087-0.206,2.925s-0.382,1.536-0.733,2.091
		c-0.352,0.558-0.821,0.976-1.415,1.259c-0.592,0.28-1.352,0.422-2.275,0.422c-0.498,0-1.111-0.047-1.84-0.142
		c-0.729-0.094-1.508-0.312-2.329-0.653l-0.077,0.024v4.899c0,0.104-0.043,0.154-0.128,0.154h-0.644
		c-0.052,0-0.077-0.051-0.077-0.154L313.788,58.048L313.788,58.048z M314.66,69.109c0.855,0.256,1.636,0.442,2.335,0.562
		c0.701,0.119,1.377,0.181,2.027,0.181c1.334,0,2.258-0.471,2.771-1.408c0.513-0.938,0.77-2.459,0.77-4.559
		c0-1.023-0.061-1.882-0.18-2.572c-0.12-0.69-0.306-1.246-0.554-1.664c-0.246-0.418-0.556-0.711-0.924-0.883
		c-0.368-0.17-0.808-0.257-1.319-0.257c-0.376,0-0.806,0.069-1.283,0.205c-0.479,0.138-0.949,0.294-1.411,0.476
		c-0.462,0.18-0.896,0.371-1.296,0.576c-0.401,0.205-0.714,0.365-0.938,0.484L314.66,69.109L314.66,69.109z"/>
	<path fill="#194790" d="M325.644,64.078c0-0.77,0.056-1.535,0.167-2.296s0.342-1.45,0.693-2.065
		c0.35-0.615,0.842-1.111,1.475-1.488c0.633-0.375,1.472-0.562,2.515-0.562c1.026,0,1.86,0.152,2.502,0.462
		c0.644,0.31,1.14,0.724,1.488,1.245c0.352,0.521,0.59,1.121,0.719,1.796c0.128,0.677,0.192,1.373,0.192,2.091
		c0,0.376-0.056,0.65-0.167,0.821s-0.33,0.257-0.654,0.257h-7.979c0,0.719,0.042,1.407,0.128,2.064
		c0.086,0.658,0.262,1.24,0.528,1.744c0.266,0.506,0.654,0.903,1.171,1.193c0.515,0.291,1.199,0.436,2.06,0.436
		c0.688,0,1.343-0.027,1.97-0.09c0.626-0.06,1.282-0.123,1.971-0.19c0.137,0,0.214,0.043,0.229,0.128l0.025,0.23
		c0.034,0.119,0,0.188-0.104,0.205c-0.257,0.104-0.562,0.188-0.924,0.256c-0.36,0.069-0.729,0.129-1.116,0.182
		c-0.385,0.052-0.766,0.085-1.142,0.104c-0.377,0.018-0.702,0.024-0.978,0.024c-1.075,0-1.933-0.181-2.563-0.539
		s-1.112-0.838-1.438-1.438c-0.323-0.599-0.533-1.295-0.629-2.09C325.691,65.759,325.644,64.934,325.644,64.078z M330.481,58.51
		c-0.79,0-1.434,0.129-1.931,0.385c-0.498,0.258-0.891,0.612-1.172,1.065c-0.282,0.454-0.484,0.988-0.604,1.604
		c-0.12,0.615-0.188,1.291-0.206,2.025h7.878c-0.018-0.648-0.063-1.277-0.142-1.886c-0.078-0.606-0.249-1.149-0.518-1.629
		c-0.267-0.479-0.658-0.86-1.184-1.144C332.078,58.652,331.371,58.51,330.481,58.51z"/>
</g>
<g>
	<path fill="#194790" d="M160.148,36.953c0.141,0,0.312,0.005,0.519,0.014c0.205,0.01,0.424,0.028,0.658,0.056
		c0.233,0.028,0.467,0.065,0.699,0.112c0.233,0.047,0.443,0.107,0.63,0.182c0.104,0.047,0.164,0.094,0.183,0.14
		c0.019,0.047,0.019,0.103,0,0.168l-0.084,0.393c-0.02,0.047-0.044,0.088-0.077,0.125s-0.096,0.047-0.189,0.028
		c-0.308-0.046-0.67-0.091-1.085-0.133c-0.416-0.042-0.833-0.063-1.253-0.063c-0.542,0-0.971,0.103-1.288,0.308
		c-0.316,0.205-0.56,0.482-0.728,0.833c-0.168,0.35-0.275,0.756-0.322,1.218s-0.069,0.949-0.069,1.463
		c0,0.467,0.027,0.92,0.084,1.357c0.056,0.438,0.17,0.826,0.343,1.162c0.172,0.336,0.417,0.604,0.734,0.806
		c0.318,0.201,0.733,0.301,1.246,0.301c0.43,0,0.84-0.021,1.232-0.063c0.392-0.041,0.756-0.086,1.092-0.133
		c0.104-0.018,0.17-0.006,0.203,0.035c0.033,0.043,0.059,0.088,0.077,0.133l0.069,0.364c0.02,0.075,0.021,0.136,0.008,0.183
		c-0.015,0.048-0.068,0.088-0.161,0.125c-0.168,0.076-0.369,0.138-0.603,0.184c-0.232,0.047-0.469,0.084-0.707,0.111
		c-0.237,0.027-0.464,0.05-0.679,0.062c-0.215,0.014-0.392,0.021-0.532,0.021c-0.736,0-1.337-0.129-1.8-0.385
		c-0.462-0.259-0.826-0.601-1.09-1.029c-0.265-0.43-0.444-0.924-0.539-1.484s-0.142-1.143-0.142-1.75
		c0-0.615,0.045-1.215,0.134-1.799c0.09-0.583,0.262-1.1,0.518-1.547c0.255-0.448,0.616-0.81,1.083-1.085
		C158.779,37.091,159.392,36.953,160.148,36.953z"/>
	<path fill="#194790" d="M169.57,46.291c-0.036,0.027-0.098,0.042-0.182,0.042h-4.904c-0.166,0-0.249-0.075-0.249-0.224v-8.82
		c0-0.159,0.083-0.238,0.249-0.238h4.819c0.159,0,0.238,0.074,0.238,0.221v0.538c0,0.157-0.084,0.235-0.252,0.235h-3.977v2.969h3.57
		c0.159,0,0.238,0.074,0.238,0.223v0.548c0,0.149-0.079,0.224-0.238,0.224h-3.57v3.332h4.088c0.149,0,0.225,0.079,0.225,0.238v0.531
		C169.625,46.203,169.607,46.264,169.57,46.291z"/>
	<path fill="#194790" d="M171.611,37.051h4.722c0.159,0,0.237,0.074,0.237,0.221v0.538c0,0.157-0.084,0.235-0.252,0.235h-3.905
		v2.982h3.458c0.158,0,0.237,0.072,0.237,0.221v0.538c0,0.157-0.084,0.235-0.252,0.235h-3.43v4.073c0,0.158-0.078,0.237-0.235,0.237
		h-0.594c-0.166,0-0.249-0.079-0.249-0.237v-8.821C171.348,37.126,171.435,37.051,171.611,37.051z"/>
	<path fill="#194790" d="M188.497,41.671c0,0.644-0.055,1.249-0.162,1.813c-0.107,0.563-0.301,1.059-0.582,1.482
		c-0.28,0.426-0.664,0.76-1.15,1.001c-0.485,0.243-1.107,0.364-1.865,0.364h-2.624c-0.111,0-0.188-0.02-0.23-0.057
		c-0.042-0.036-0.062-0.098-0.062-0.182v-8.807c0-0.149,0.084-0.224,0.252-0.224h2.666c0.748,0,1.365,0.119,1.853,0.357
		c0.486,0.238,0.87,0.565,1.15,0.98c0.279,0.414,0.477,0.901,0.589,1.463C188.441,40.425,188.497,41.027,188.497,41.671z
		 M187.335,41.79c0-0.785-0.072-1.421-0.218-1.907c-0.146-0.486-0.341-0.865-0.583-1.137c-0.243-0.271-0.521-0.453-0.836-0.547
		c-0.313-0.094-0.64-0.141-0.977-0.141h-1.826v7.279h1.729c0.317,0,0.637-0.04,0.955-0.119c0.317-0.078,0.607-0.242,0.871-0.49
		c0.262-0.248,0.475-0.605,0.639-1.072C187.253,43.188,187.335,42.566,187.335,41.79z"/>
	<path fill="#194790" d="M191.563,37.695c0,0.178-0.035,0.327-0.104,0.448c-0.07,0.123-0.236,0.184-0.497,0.184
		c-0.271,0-0.439-0.062-0.504-0.188c-0.065-0.128-0.1-0.274-0.1-0.443c0-0.177,0.04-0.322,0.119-0.434
		c0.079-0.112,0.24-0.168,0.483-0.168c0.252,0,0.415,0.054,0.489,0.161C191.526,37.361,191.563,37.508,191.563,37.695z
		 M191.479,46.096c0,0.158-0.075,0.237-0.224,0.237h-0.574c-0.168,0-0.252-0.079-0.252-0.237v-6.343
		c0-0.103,0.021-0.168,0.062-0.196c0.042-0.026,0.104-0.041,0.188-0.041h0.574c0.147,0,0.224,0.078,0.224,0.237L191.479,46.096
		L191.479,46.096z"/>
	<path fill="#194790" d="M196.064,39.375c0.214,0,0.438,0.01,0.671,0.027c0.232,0.02,0.46,0.043,0.685,0.07
		c0.224,0.027,0.438,0.062,0.643,0.104s0.393,0.086,0.56,0.133c0.157,0.047,0.256,0.126,0.294,0.238
		c0.037,0.11,0.056,0.219,0.056,0.321v6.09c0,0.373-0.028,0.717-0.084,1.029s-0.177,0.582-0.363,0.812
		c-0.186,0.229-0.456,0.404-0.81,0.531c-0.354,0.125-0.828,0.188-1.424,0.188c-0.178,0-0.367-0.005-0.572-0.014
		c-0.204-0.011-0.407-0.026-0.606-0.05s-0.396-0.056-0.587-0.099c-0.189-0.041-0.359-0.096-0.51-0.159
		c-0.094-0.039-0.146-0.082-0.161-0.135c-0.014-0.052-0.012-0.104,0.007-0.16l0.058-0.309c0.019-0.084,0.056-0.137,0.11-0.153
		c0.058-0.02,0.137-0.02,0.238,0c0.299,0.046,0.63,0.078,0.994,0.099c0.364,0.018,0.69,0.026,0.979,0.026
		c0.326,0,0.596-0.024,0.806-0.075c0.21-0.053,0.378-0.134,0.504-0.246c0.126-0.111,0.215-0.254,0.266-0.426
		c0.053-0.175,0.077-0.382,0.077-0.623v-0.562c-0.43,0.157-0.805,0.269-1.127,0.329c-0.322,0.06-0.608,0.091-0.86,0.091
		c-0.541,0-0.986-0.082-1.338-0.245c-0.35-0.163-0.628-0.398-0.833-0.707c-0.204-0.309-0.348-0.677-0.427-1.105
		c-0.079-0.43-0.119-0.909-0.119-1.441c0-0.568,0.047-1.076,0.141-1.52c0.093-0.444,0.251-0.818,0.475-1.127
		s0.521-0.541,0.887-0.699C195.056,39.455,195.514,39.375,196.064,39.375z M194.307,42.833c0,0.495,0.028,0.91,0.084,1.246
		s0.147,0.61,0.273,0.825s0.286,0.369,0.481,0.463c0.196,0.094,0.438,0.14,0.729,0.14c0.261,0,0.572-0.028,0.938-0.084
		s0.725-0.136,1.078-0.237v-4.662c-0.271-0.037-0.562-0.071-0.875-0.104c-0.312-0.033-0.618-0.049-0.917-0.049
		c-0.252,0-0.488,0.026-0.707,0.084c-0.22,0.056-0.411,0.17-0.574,0.343s-0.289,0.42-0.378,0.742
		C194.351,41.859,194.307,42.292,194.307,42.833z"/>
	<path fill="#194790" d="M201.839,37.695c0,0.178-0.035,0.327-0.104,0.448c-0.069,0.123-0.235,0.184-0.497,0.184
		c-0.271,0-0.438-0.062-0.504-0.188c-0.064-0.128-0.099-0.274-0.099-0.443c0-0.177,0.04-0.322,0.119-0.434
		c0.079-0.112,0.24-0.168,0.482-0.168c0.252,0,0.415,0.054,0.489,0.161C201.802,37.361,201.839,37.508,201.839,37.695z
		 M201.755,46.096c0,0.158-0.075,0.237-0.225,0.237h-0.573c-0.168,0-0.252-0.079-0.252-0.237v-6.343
		c0-0.103,0.021-0.168,0.062-0.196c0.042-0.026,0.105-0.041,0.189-0.041h0.573c0.148,0,0.225,0.078,0.225,0.237L201.755,46.096
		L201.755,46.096z"/>
	<path fill="#194790" d="M207.355,45.893c0.009,0.123-0.033,0.213-0.126,0.27c-0.085,0.048-0.193,0.088-0.329,0.12
		s-0.279,0.062-0.435,0.086c-0.153,0.022-0.303,0.042-0.448,0.057c-0.145,0.015-0.268,0.021-0.37,0.021
		c-0.299,0-0.547-0.034-0.742-0.104c-0.195-0.069-0.351-0.17-0.462-0.301s-0.19-0.287-0.237-0.47
		c-0.047-0.182-0.07-0.385-0.07-0.608v-4.563h-0.771c-0.158,0-0.237-0.078-0.237-0.237V39.77c0-0.168,0.079-0.252,0.237-0.252h0.784
		v-1.514c0-0.084,0.021-0.145,0.062-0.182c0.042-0.037,0.101-0.065,0.175-0.084l0.561-0.154c0.158-0.046,0.237,0.023,0.237,0.21
		v1.724h1.555c0.104,0,0.168,0.021,0.195,0.062c0.028,0.042,0.042,0.101,0.042,0.175v0.406c0,0.084-0.014,0.145-0.042,0.182
		c-0.027,0.038-0.093,0.057-0.195,0.057h-1.555v4.229c0,0.168,0.012,0.304,0.035,0.405s0.072,0.187,0.147,0.251
		c0.073,0.065,0.175,0.108,0.301,0.133s0.296,0.035,0.511,0.035c0.075,0,0.203-0.009,0.386-0.021
		c0.183-0.015,0.324-0.025,0.428-0.035c0.11-0.01,0.187-0.002,0.224,0.021s0.064,0.074,0.084,0.149L207.355,45.893z"/>
	<path fill="#194790" d="M212.45,45.577c-0.346,0.205-0.73,0.401-1.154,0.588c-0.425,0.187-0.917,0.28-1.479,0.28
		c-0.682,0-1.167-0.164-1.456-0.49c-0.288-0.326-0.434-0.807-0.434-1.441c0-0.794,0.2-1.385,0.602-1.771
		c0.402-0.386,1.068-0.581,2.003-0.581h1.933v-0.477c0-0.514-0.119-0.869-0.357-1.063c-0.237-0.196-0.665-0.294-1.28-0.294
		c-0.132,0-0.277,0.003-0.44,0.007c-0.164,0.005-0.334,0.015-0.512,0.026c-0.178,0.016-0.354,0.029-0.531,0.044
		c-0.178,0.014-0.341,0.03-0.49,0.049c-0.159,0.026-0.252-0.015-0.279-0.126l-0.085-0.364c-0.019-0.063-0.012-0.121,0.021-0.168
		c0.032-0.047,0.1-0.094,0.203-0.141c0.14-0.046,0.308-0.089,0.504-0.125c0.195-0.037,0.401-0.068,0.615-0.093
		c0.215-0.021,0.428-0.039,0.638-0.049c0.21-0.009,0.398-0.014,0.566-0.014c0.561,0,1.007,0.061,1.34,0.182s0.587,0.289,0.763,0.504
		c0.175,0.215,0.286,0.478,0.333,0.785c0.047,0.307,0.071,0.648,0.071,1.021v3.094c0,0.141,0.007,0.248,0.021,0.322
		c0.015,0.074,0.037,0.131,0.07,0.168c0.032,0.037,0.081,0.062,0.146,0.076c0.065,0.015,0.154,0.025,0.268,0.035
		c0.158,0.01,0.237,0.069,0.237,0.183v0.351c0,0.064-0.02,0.118-0.057,0.16s-0.111,0.072-0.224,0.092
		c-0.168,0.027-0.332,0.041-0.49,0.041c-0.331,0-0.575-0.061-0.729-0.182c-0.156-0.121-0.259-0.331-0.307-0.63H212.45z
		 M212.465,43.043h-2.06c-0.429,0-0.77,0.098-1.021,0.294s-0.378,0.574-0.378,1.134c0,0.394,0.077,0.658,0.229,0.799
		c0.154,0.141,0.438,0.209,0.849,0.209c0.177,0,0.37-0.021,0.58-0.068c0.211-0.047,0.423-0.11,0.638-0.188
		c0.215-0.08,0.422-0.166,0.623-0.261c0.2-0.094,0.38-0.187,0.539-0.278V43.043z"/>
	<path fill="#194790" d="M217.546,46.012c0.009,0.111-0.037,0.191-0.141,0.237c-0.111,0.047-0.235,0.084-0.37,0.112
		c-0.137,0.027-0.265,0.041-0.387,0.041c-0.232,0-0.425-0.027-0.572-0.084c-0.149-0.055-0.268-0.133-0.352-0.23
		c-0.084-0.097-0.143-0.219-0.175-0.363c-0.033-0.145-0.049-0.302-0.049-0.47v-8.54c0-0.158,0.079-0.238,0.237-0.238h0.561
		c0.084,0,0.146,0.014,0.188,0.042s0.062,0.093,0.062,0.196v8.189c0,0.244,0.051,0.391,0.154,0.44
		c0.103,0.052,0.283,0.077,0.546,0.077c0.148,0,0.229,0.047,0.237,0.141L217.546,46.012z"/>
</g>
</svg>
